# xmcd
#
# Track frame offsets:
#	150
#	15377
#	42250
#	59397
#	78047
#	99497
#	113212
#	124450
#	154560
#	170347
#	186617
#	215362
#
# Disc length: 3156 seconds
#
# Revision: 4
# Processed by: cddbd v1.5.2PL0 Copyright (c) Steve Scherf et al.
# Submitted via: audiograbber 1.83.01
#
DISCID=990c520c
DTITLE=lang, k.d. - Drag
DYEAR=1997
DGENRE=Pop
TTITLE0=Don't smoke in bed
TTITLE1=The air that I breathe
TTITLE2=Smoke dreams
TTITLE3=My last cigarette
TTITLE4=The joker
TTITLE5=Theme from 'The valley of the dolls'
TTITLE6=Your smoke screen
TTITLE7=My old addiction
TTITLE8=Till the heart caves in
TTITLE9=Smoke rings
TTITLE10=Hain't it funny
TTITLE11=Love is like a cigarette
EXTD=
EXTT0=
EXTT1=
EXTT2=
EXTT3=
EXTT4=
EXTT5=
EXTT6=
EXTT7=
EXTT8=
EXTT9=
EXTT10=
EXTT11=
PLAYORDER=
